<?xml version="1.0" encoding="UTF-8" standalone="no"?>
<svg
   xmlns:dc="http://purl.org/dc/elements/1.1/"
   xmlns:cc="http://creativecommons.org/ns#"
   xmlns:rdf="http://www.w3.org/1999/02/22-rdf-syntax-ns#"
   xmlns:svg="http://www.w3.org/2000/svg"
   xmlns="http://www.w3.org/2000/svg"
   xmlns:sodipodi="http://sodipodi.sourceforge.net/DTD/sodipodi-0.dtd"
   xmlns:inkscape="http://www.inkscape.org/namespaces/inkscape"
   version="1.1"
   id="Layer_1"
   x="0px"
   y="0px"
   viewBox="0 0 262.00001 558.00002"
   xml:space="preserve"
   sodipodi:docname="border.svg"
   width="262"
   height="558"
   inkscape:version="1.0.2-2 (e86c870879, 2021-01-15)"><metadata
   id="metadata29"><rdf:RDF><cc:Work
       rdf:about=""><dc:format>image/svg+xml</dc:format><dc:type
         rdf:resource="http://purl.org/dc/dcmitype/StillImage" /><dc:title></dc:title></cc:Work></rdf:RDF></metadata><defs
   id="defs27"><marker
     style="overflow:visible"
     id="Arrow1Lstart"
     refX="0.0"
     refY="0.0"
     orient="auto"
     inkscape:stockid="Arrow1Lstart"
     inkscape:isstock="true"><path
       transform="scale(0.8) translate(12.5,0)"
       style="fill-rule:evenodd;stroke:none;stroke-width:1pt;stroke-opacity:1;fill:#c99f60;fill-opacity:1"
       d="M 0.0,0.0 L 5.0,-5.0 L -12.5,0.0 L 5.0,5.0 L 0.0,0.0 z "
       id="path854" /></marker></defs><sodipodi:namedview
   pagecolor="#ffffff"
   bordercolor="#666666"
   borderopacity="1"
   objecttolerance="10"
   gridtolerance="10"
   guidetolerance="10"
   inkscape:pageopacity="0"
   inkscape:pageshadow="2"
   inkscape:window-width="1932"
   inkscape:window-height="927"
   id="namedview25"
   showgrid="false"
   inkscape:zoom="70.238511"
   inkscape:cx="248.79979"
   inkscape:cy="261.26832"
   inkscape:window-x="0"
   inkscape:window-y="0"
   inkscape:window-maximized="0"
   inkscape:current-layer="g22" />
<style
   type="text/css"
   id="style2">
	.st0{fill:#C99F60;}
</style>
<g
   id="g22"
   transform="translate(2,2.3)">
	<path
   class="st0"
   d="m 256.8,548.1 c 0,-0.4 0,-1 -0.5,-1.2 -0.8,1.3 -1.2,1.4 -2.9,1.1 0,-1.7 0,-3.3 0,-5 0,-0.4 0.3,-0.8 0.7,-1 0.2,-0.1 0.4,-0.1 0.5,-0.3 -0.3,-0.5 -0.8,-0.4 -1.2,-0.4 -0.2,-0.4 -0.2,-0.9 -0.6,-1.2 -0.4,0.3 -0.3,0.8 -0.6,1.2 -0.4,0 -0.9,-0.1 -1.2,0.5 0.1,0.1 0.2,0.1 0.3,0.2 0.6,0.2 0.8,0.7 0.8,1.3 0,0.6 0,1.2 0,1.8 0,1 0,2 0,3 -0.7,0.1 -1.3,0.2 -1.9,0 -0.6,-0.2 -0.6,-0.7 -0.9,-1.1 -0.6,0.3 -0.4,0.9 -0.5,1.2 -0.4,0.3 -0.9,0.2 -1.1,0.6 0.3,0.4 0.8,0.3 1.2,0.6 0,0.4 -0.1,0.9 0.5,1.2 0.7,-1.2 1.3,-1.4 2.9,-1 0,0.6 0,1.2 0,1.8 0,0.5 -0.2,0.9 -0.8,1.1 -0.1,0.1 -0.3,0.1 -0.4,0.3 0.2,0.6 0.8,0.4 1.1,0.5 0.3,0.4 0.2,0.9 0.7,1.2 0.3,-0.4 0.3,-0.8 0.6,-1.2 0.4,0 1,0.1 1.2,-0.5 -0.6,-0.2 -1.1,-0.5 -1.2,-1.2 0,-0.6 -0.1,-1.2 0,-1.9 0.7,-0.1 1.3,-0.1 1.9,0 0.6,0.1 0.6,0.8 1,1.1 0.5,-0.3 0.5,-0.8 0.4,-1.2 0.4,-0.3 0.9,-0.2 1.2,-0.6 -0.4,-0.7 -0.9,-0.7 -1.2,-0.9 z"
   id="path4"
   style="display:inline" />
	
	<rect
   x="11.7"
   y="5.1999998"
   class="st0"
   width="234.8"
   height="0.80000001"
   id="rect8"
   style="fill:none;stroke:#c99f60;stroke-width:0.8;stroke-miterlimit:4;stroke-dasharray:none;stroke-opacity:1" />
	<rect
   x="11.8"
   y="548.29999"
   class="st0"
   width="234.7"
   height="0.80000001"
   id="rect10"
   style="display:inline;fill:none;stroke:#c99f60;stroke-opacity:1;stroke-width:0.8;stroke-miterlimit:4;stroke-dasharray:none" />
	<rect
   x="4.6999998"
   y="15.3"
   class="st0"
   width="0.80000001"
   height="522.90002"
   id="rect12"
   style="display:inline;fill:none;stroke:#c99f60;stroke-opacity:1;stroke-width:0.8;stroke-miterlimit:4;stroke-dasharray:none" /><rect
   x="252.39999"
   y="15.7"
   class="st0"
   width="0.80000001"
   height="522.5"
   id="rect18"
   style="display:inline;fill:none;stroke:#c99f60;stroke-opacity:1;stroke-width:0.8;stroke-miterlimit:4;stroke-dasharray:none" /><path
   class="st0"
   d="m 9.1,548.1 c 0,-0.4 0,-1 -0.5,-1.2 -0.8,1.3 -1.2,1.4 -2.9,1.1 0,-1.7 0,-3.3 0,-5 0,-0.4 0.3,-0.8 0.7,-1 0.2,-0.1 0.4,-0.1 0.5,-0.3 -0.3,-0.5 -0.8,-0.4 -1.2,-0.4 -0.2,-0.4 -0.2,-0.9 -0.6,-1.2 -0.4,0.3 -0.3,0.8 -0.6,1.2 -0.4,0 -0.9,-0.1 -1.2,0.5 0.1,0.1 0.2,0.1 0.3,0.2 0.6,0.2 0.8,0.7 0.8,1.3 0,0.6 0,1.2 0,1.8 0,1 0,2 0,3 -0.7,0.1 -1.3,0.2 -1.9,0 -0.6,-0.2 -0.6,-0.7 -0.9,-1.1 -0.6,0.3 -0.4,0.9 -0.5,1.2 -0.4,0.3 -0.9,0.2 -1.1,0.6 0.3,0.4 0.8,0.3 1.2,0.6 0,0.4 -0.1,0.9 0.5,1.2 0.7,-1.2 1.3,-1.4 2.9,-1 0,0.6 0,1.2 0,1.8 0,0.5 -0.2,0.9 -0.8,1.1 -0.1,0.1 -0.3,0.1 -0.4,0.3 0.2,0.6 0.8,0.4 1.1,0.5 0.3,0.4 0.2,0.9 0.7,1.2 0.3,-0.4 0.3,-0.8 0.6,-1.2 0.4,0 1,0.1 1.2,-0.5 -0.6,-0.2 -1.1,-0.5 -1.2,-1.2 0,-0.6 -0.1,-1.2 0,-1.9 0.7,-0.1 1.3,-0.1 1.9,0 0.6,0.1 0.6,0.8 1,1.1 0.5,-0.3 0.5,-0.8 0.4,-1.2 0.4,-0.3 0.9,-0.2 1.2,-0.6 -0.3,-0.7 -0.8,-0.7 -1.2,-0.9 z"
   id="path6"
   style="display:inline" />
	<path
   class="st0"
   d="M 1.2,6.1 C 1.2,6.5 1.2,7 1.7,7.3 2.4,6 2.9,5.9 4.6,6.2 c 0,1.7 0,3.3 0,5 0,0.4 -0.3,0.8 -0.7,1 -0.2,0.1 -0.4,0.1 -0.5,0.3 0.3,0.5 0.8,0.4 1.2,0.4 0.2,0.4 0.2,0.9 0.6,1.2 C 5.6,13.8 5.5,13.3 5.8,12.9 6.2,12.9 6.7,13 7,12.4 6.9,12.3 6.8,12.3 6.7,12.2 6.1,12 5.9,11.5 5.9,10.9 c 0,-0.6 0,-1.2 0,-1.8 0,-1 0,-2 0,-3 C 6.6,6 7.2,5.9 7.8,6.1 8.4,6.3 8.4,6.8 8.7,7.2 9.3,7 9,6.4 9.2,6.1 9.6,5.8 10.1,5.9 10.3,5.5 10,5.1 9.5,5.2 9.1,4.9 9.1,4.5 9.2,4 8.6,3.7 7.9,4.9 7.3,5.1 5.7,4.7 5.7,4.1 5.7,3.5 5.7,2.9 5.7,2.4 5.9,2 6.5,1.8 6.6,1.7 6.8,1.7 6.9,1.5 6.7,1 6.1,1.3 5.8,1.2 5.4,0.8 5.6,0.2 5.1,0 4.8,0.4 4.8,0.8 4.6,1.2 4.2,1.2 3.6,1.1 3.4,1.7 4,1.9 4.5,2.2 4.5,2.9 4.5,3.5 4.6,4.1 4.5,4.8 3.8,4.9 3.2,4.9 2.6,4.8 2,4.7 2,4 1.6,3.7 1.2,4 1.1,4.5 1.2,4.9 0.8,5.2 0.3,5.1 0,5.5 0.3,5.9 0.8,5.8 1.2,6.1 Z"
   id="path14"
   style="display:inline" />
	<path
   class="st0"
   d="m 248.8,6.1 c 0,0.4 0,0.9 0.5,1.2 0.8,-1.3 1.2,-1.4 2.9,-1.1 0,1.7 0,3.3 0,5 0,0.4 -0.3,0.8 -0.7,1 -0.2,0.1 -0.4,0.1 -0.5,0.3 0.3,0.5 0.8,0.4 1.2,0.4 0.2,0.4 0.2,0.9 0.6,1.2 0.4,-0.3 0.3,-0.8 0.6,-1.2 0.4,0 0.9,0.1 1.2,-0.5 -0.1,-0.1 -0.2,-0.1 -0.3,-0.2 -0.6,-0.2 -0.8,-0.7 -0.8,-1.3 0,-0.6 0,-1.2 0,-1.8 0,-1 0,-2 0,-3 0.7,-0.1 1.3,-0.2 1.9,0 0.6,0.2 0.6,0.7 0.9,1.1 0.6,-0.3 0.4,-0.9 0.5,-1.2 0.4,-0.3 0.9,-0.2 1.1,-0.6 -0.3,-0.4 -0.8,-0.3 -1.2,-0.6 0,-0.4 0.1,-0.9 -0.5,-1.2 -0.7,1.2 -1.3,1.4 -2.9,1 0,-0.6 0,-1.2 0,-1.8 0,-0.5 0.2,-0.9 0.8,-1.1 0.1,-0.1 0.3,-0.1 0.4,-0.3 -0.2,-0.6 -0.8,-0.4 -1.1,-0.5 -0.3,-0.4 -0.2,-0.9 -0.7,-1.2 -0.3,0.4 -0.3,0.8 -0.6,1.2 -0.4,0 -1,-0.1 -1.2,0.5 0.6,0.2 1.1,0.5 1.2,1.2 0,0.6 0.1,1.2 0,1.9 -0.7,0.1 -1.3,0.1 -1.9,0 -0.6,-0.1 -0.6,-0.8 -1,-1.1 -0.5,0.3 -0.5,0.8 -0.4,1.2 -0.4,0.3 -0.9,0.2 -1.2,0.6 0.4,0.7 0.9,0.6 1.2,0.9 z"
   id="path16"
   style="display:inline" />
	
	<path
   class="st0"
   d="M 9.3,544.1 H 248.7 V 9.9 H 9.3 Z"
   id="path20"
   style="display:inline;opacity:1;fill:none;stroke:#c99f60;stroke-width:1.5;stroke-miterlimit:4;stroke-dasharray:none;stroke-opacity:1"
   inkscape:label="path20"
   sodipodi:nodetypes="ccccc" />
</g>
</svg>
